<?xml version="1.0" standalone="no"?>
<!DOCTYPE svg PUBLIC "-//W3C//DTD SVG 20010904//EN"
 "http://www.w3.org/TR/2001/REC-SVG-20010904/DTD/svg10.dtd">
<svg version="1.0" xmlns="http://www.w3.org/2000/svg"
 width="512.000000pt" height="512.000000pt" viewBox="0 0 512.000000 512.000000"
 preserveAspectRatio="xMidYMid meet">
<metadata>
Created by potrace 1.14, written by Peter Selinger 2001-2017
</metadata>
<g transform="translate(0.000000,512.000000) scale(0.100000,-0.100000)"
fill="#000000" stroke="none">
<path d="M1163 4872 c-84 -97 -168 -195 -186 -216 l-35 -40 1 -995 0 -995 55
60 c62 68 255 275 292 314 14 14 72 77 130 140 58 62 133 143 167 179 l62 66
-5 360 c-2 198 -6 474 -8 614 l-4 253 -39 56 c-21 31 -65 92 -98 137 -33 44
-77 105 -98 135 -20 30 -47 67 -60 82 l-22 28 -152 -178z"/>
<path d="M1791 3049 l-848 -852 0 -787 -1 -788 55 -74 c30 -40 60 -80 66 -88
7 -8 55 -72 107 -142 l95 -127 18 22 c11 12 40 45 65 73 26 27 85 92 132 144
47 52 104 114 127 139 l43 46 0 340 1 340 257 -261 c141 -144 374 -381 518
-527 l260 -265 266 261 c147 144 540 533 875 863 334 331 625 618 646 638 20
19 37 39 37 43 0 4 -175 181 -389 393 -214 212 -630 624 -924 916 -294 292
-539 534 -546 538 -7 5 -323 -306 -860 -845z m1388 -719 l284 -282 -326 -321
c-179 -177 -348 -343 -374 -369 l-49 -48 -392 394 -392 394 368 371 367 370
115 -114 c63 -62 243 -240 399 -395z"/>
</g>
</svg>
