<?xml version="1.0" standalone="no"?>
<!DOCTYPE svg PUBLIC "-//W3C//DTD SVG 20010904//EN"
 "http://www.w3.org/TR/2001/REC-SVG-20010904/DTD/svg10.dtd">
<svg version="1.0" xmlns="http://www.w3.org/2000/svg"
 width="180.000000pt" height="180.000000pt" viewBox="0 0 180.000000 180.000000"
 preserveAspectRatio="xMidYMid meet">
<metadata>
Created by potrace 1.14, written by Peter Selinger 2001-2017
</metadata>
<g transform="translate(0.000000,180.000000) scale(0.100000,-0.100000)"
fill="#000000" stroke="none">
<path d="M0 900 l0 -900 900 0 900 0 0 900 0 900 -900 0 -900 0 0 -900z m743
541 c27 -39 27 -40 27 -212 l0 -172 -65 -68 -65 -67 0 240 0 240 31 39 c17 21
34 39 37 39 4 0 19 -18 35 -39z m576 -639 c3 -1 -73 -81 -169 -177 l-175 -175
-102 102 -103 103 0 -66 c0 -61 -3 -68 -36 -108 l-36 -42 -29 38 c-28 38 -28
38 -29 193 l0 155 162 162 163 163 175 -172 c96 -95 176 -174 179 -176z"/>
<path d="M897 882 c-37 -37 -67 -72 -67 -78 0 -13 132 -144 146 -144 5 0 41
32 79 70 l69 70 -74 75 c-41 41 -77 75 -80 75 -3 0 -36 -30 -73 -68z"/>
</g>
</svg>
