<?xml version="1.0" standalone="no"?>
<!DOCTYPE svg PUBLIC "-//W3C//DTD SVG 20010904//EN"
 "http://www.w3.org/TR/2001/REC-SVG-20010904/DTD/svg10.dtd">
<svg version="1.0" xmlns="http://www.w3.org/2000/svg"
 width="512.000000pt" height="512.000000pt" viewBox="0 0 512.000000 512.000000"
 preserveAspectRatio="xMidYMid meet">
<metadata>
Created by potrace 1.11, written by Peter Selinger 2001-2013
</metadata>
<g transform="translate(0.000000,512.000000) scale(0.100000,-0.100000)"
fill="#000000" stroke="none">
<path d="M2325 5110 c-606 -68 -1124 -307 -1544 -715 -213 -207 -370 -420
-502 -680 -284 -564 -353 -1198 -194 -1802 46 -176 91 -295 175 -469 125 -259
261 -453 465 -663 225 -231 427 -378 710 -517 258 -126 509 -203 810 -246 136
-20 532 -16 670 5 577 91 1060 332 1453 725 402 402 653 913 734 1492 17 124
17 516 0 635 -46 320 -127 579 -267 855 -196 385 -508 732 -875 973 -135 88
-384 212 -536 266 -139 50 -355 104 -504 126 -124 19 -480 28 -595 15z m-207
-982 c37 -51 76 -104 85 -118 15 -22 17 -73 17 -521 l0 -497 -187 -188 -188
-187 -3 683 -2 683 96 118 c53 66 100 119 104 119 5 0 40 -42 78 -92z m1176
-1358 l501 -500 -490 -490 c-270 -270 -494 -490 -500 -490 -6 0 -138 128 -295
285 -157 157 -288 285 -292 285 -3 0 -7 -86 -7 -190 0 -218 13 -181 -116 -328
-38 -45 -74 -81 -80 -81 -5 0 -47 51 -92 113 l-83 113 0 430 0 429 443 442
c443 442 484 481 501 482 5 0 235 -225 510 -500z"/>
<path d="M2580 2495 l-205 -205 217 -217 218 -218 207 208 208 207 -215 215
c-118 118 -217 215 -220 215 -3 0 -97 -92 -210 -205z"/>
</g>
</svg>
